<svg width="14" height="16" viewBox="0 0 14 16" fill="none" xmlns="http://www.w3.org/2000/svg">
<path d="M9.66667 4V3.46667C9.66667 2.71993 9.66667 2.34656 9.52134 2.06135C9.39351 1.81046 9.18954 1.60649 8.93865 1.47866C8.65344 1.33333 8.28007 1.33333 7.53333 1.33333H6.46667C5.71993 1.33333 5.34656 1.33333 5.06135 1.47866C4.81046 1.60649 4.60649 1.81046 4.47866 2.06135C4.33333 2.34656 4.33333 2.71993 4.33333 3.46667V4M5.66667 7.66667V11M8.33333 7.66667V11M1 4H13M11.6667 4V11.4667C11.6667 12.5868 11.6667 13.1468 11.4487 13.5746C11.2569 13.951 10.951 14.2569 10.5746 14.4487C10.1468 14.6667 9.58677 14.6667 8.46667 14.6667H5.53333C4.41323 14.6667 3.85318 14.6667 3.42535 14.4487C3.04903 14.2569 2.74307 13.951 2.55132 13.5746C2.33333 13.1468 2.33333 12.5868 2.33333 11.4667V4" stroke="#1B1B1B" stroke-width="1.3" stroke-linecap="round" stroke-linejoin="round"/>
</svg>
